<svg xmlns="http://www.w3.org/2000/svg" viewBox="0 0 532 297" fill="currentColor" fill-rule="evenodd"><path d="M106.0 288.3C106.5 287.0 107.0 286.9 113.8 286.0C115.7 285.8 118.2 285.3 119.4 285.0C122.5 284.2 127.6 283.6 135.2 283.0C141.8 282.5 145.8 282.0 149.3 281.1C150.4 280.8 156.4 280.0 162.8 279.2C177.6 277.6 182.0 276.8 183.1 275.5C183.8 274.7 183.9 273.2 183.7 264.4C183.7 258.8 183.5 253.6 183.3 252.8C182.8 249.7 182.3 212.7 182.9 212.3C183.1 212.2 184.5 213.1 185.9 214.5C188.6 217.2 190.2 217.7 191.7 216.0C193.1 214.5 192.5 213.3 187.9 207.9C183.4 202.7 177.4 195.2 173.7 190.1C172.5 188.4 171.2 187.0 171.0 187.0C170.2 187.0 167.5 184.0 166.7 182.2C166.3 181.3 165.0 179.7 163.8 178.7C159.8 175.2 159.2 174.6 158.3 173.1C157.5 171.5 157.5 171.5 158.3 171.2C161.8 169.9 162.0 165.3 158.8 155.5C157.9 152.9 156.2 147.2 155.5 144.2C154.5 140.6 153.9 138.8 152.5 135.8C149.8 129.7 149.5 128.9 149.5 127.5C149.5 124.9 147.2 124.4 139.2 125.4C136.8 125.7 130.9 126.2 126.2 126.5C113.1 127.3 105.0 128.0 102.2 128.5C100.9 128.7 97.8 129.2 95.5 129.5C93.2 129.8 88.5 130.8 85.2 131.8C76.6 134.2 66.9 136.1 62.0 136.2C57.0 136.4 56.6 136.8 58.0 141.8C58.5 143.4 59.3 146.5 59.8 148.6L60.7 152.4 L57.8 156.7C56.3 159.1 54.4 162.2 53.8 163.6C53.2 165.1 51.8 167.5 50.8 168.9C48.9 171.8 48.4 174.5 49.7 176.0C50.3 176.6 50.3 178.0 50.0 183.2C49.8 186.8 49.6 199.9 49.7 212.3C49.7 233.1 49.8 234.9 50.7 236.2C51.1 236.9 52.0 237.7 52.7 238.0C53.3 238.2 54.3 239.1 55.0 240.1C55.7 241.0 56.4 242.0 56.6 242.2C56.8 242.5 57.6 243.7 58.4 244.8C59.6 246.7 69.8 257.4 73.4 260.6C74.3 261.4 75.8 263.3 76.8 264.8C77.8 266.3 80.2 268.8 82.1 270.3C84.0 271.8 85.5 273.2 85.5 273.4C85.5 274.6 97.8 284.8 100.4 285.9C100.7 286.0 101.4 286.9 101.7 287.8C102.6 290.0 105.2 290.3 106.0 288.3ZM106.8 283.1C106.7 282.9 106.4 278.5 106.3 273.2C106.1 268.0 105.7 263.0 105.4 262.0C105.1 260.9 105.0 254.6 105.1 245.5C105.2 231.0 105.3 230.7 106.4 228.8C107.1 227.7 108.6 224.9 109.9 222.5C111.1 220.2 112.7 217.6 113.4 216.6C114.1 215.7 115.2 213.8 115.8 212.4C116.5 211.0 117.4 209.3 118.0 208.6C118.5 207.8 119.6 205.9 120.5 204.2C121.4 202.6 123.0 200.1 124.0 198.8C125.0 197.4 126.5 194.9 127.3 193.2C128.1 191.6 129.8 188.8 131.1 187.0C132.3 185.2 133.7 182.9 134.3 181.9L135.4 180.1 L144.1 179.8C148.8 179.7 153.4 179.4 154.2 179.2C156.3 178.8 160.1 182.1 162.0 186.1C162.9 187.8 164.4 189.7 165.8 190.8C167.1 191.8 169.0 194.1 170.1 195.7C171.3 197.4 173.4 200.2 174.8 201.9C179.5 207.4 179.3 205.7 177.5 226.6C177.1 230.7 177.1 238.0 177.6 251.9C177.9 262.6 178.0 271.7 177.9 272.1C177.6 272.8 175.0 273.3 166.8 274.2C164.8 274.4 160.8 275.0 149.8 276.8C147.0 277.3 142.7 277.8 140.2 278.1C132.3 278.8 127.8 279.4 125.2 280.0C114.7 282.4 112.4 282.9 109.9 283.2C108.3 283.4 107.0 283.3 106.8 283.1ZM97.1 273.8C95.6 272.8 92.8 270.5 90.8 268.6C88.9 266.7 86.3 264.7 85.2 264.0C84.2 263.4 82.2 261.5 80.8 259.9C79.5 258.2 77.3 256.3 76.1 255.6C74.9 254.8 72.5 253.0 70.8 251.4C69.1 249.9 66.6 247.7 65.2 246.7C63.8 245.6 61.8 243.6 60.8 242.2C59.7 240.9 58.2 239.0 57.4 238.2L55.9 236.6 L56.0 217.5C56.0 207.0 55.8 197.6 55.6 196.6C55.3 195.6 54.8 192.1 54.5 188.8C54.2 185.4 53.7 181.2 53.5 179.3C53.0 175.7 53.5 173.9 55.4 171.5C56.5 170.1 58.0 166.7 58.0 165.7C58.0 164.6 61.4 157.5 61.9 157.5C62.2 157.5 63.0 160.1 63.7 163.4C64.5 166.6 65.4 170.2 65.8 171.2C66.3 172.3 67.0 174.8 67.5 176.6C68.0 178.4 69.0 180.7 69.7 181.5C70.9 182.9 71.0 183.5 71.0 187.4C71.0 192.8 71.4 193.5 75.2 193.9C78.5 194.2 78.8 194.5 77.5 196.2C76.9 196.9 76.1 198.6 75.7 199.9C74.9 202.6 74.4 203.7 72.4 206.8C69.8 210.8 70.0 211.8 73.6 215.5C75.3 217.3 78.4 219.8 80.5 221.0C82.6 222.2 85.4 224.3 86.8 225.5C88.2 226.8 91.7 229.0 94.6 230.5C97.5 232.0 100.4 233.6 101.0 234.0L102.2 234.9 L101.5 241.1C101.0 244.8 100.7 252.4 100.7 260.5C100.7 275.2 100.7 275.5 100.1 275.5C99.9 275.5 98.5 274.7 97.1 273.8ZM146.7 265.1C147.4 264.3 148.6 264.1 152.9 263.8C155.8 263.6 159.2 263.3 160.2 263.2C161.3 263.1 162.5 263.1 162.9 263.0C164.5 263.0 165.2 259.5 165.3 250.5C165.3 245.7 165.6 241.1 165.8 240.4C166.4 237.8 165.0 237.0 160.3 237.0C158.0 237.0 156.0 237.2 155.7 237.5C155.5 237.7 153.7 238.2 151.8 238.5C149.9 238.8 148.0 239.3 147.5 239.5C147.0 239.8 146.0 240.0 145.3 240.0C143.4 240.0 143.1 241.1 142.5 250.2C141.8 260.6 141.9 264.7 142.6 265.4C143.5 266.3 145.7 266.1 146.7 265.1ZM147.5 259.9C147.5 259.8 147.4 256.7 147.2 253.0C147.1 249.3 146.9 245.8 146.7 245.1C146.4 243.5 147.5 243.2 154.9 242.8C160.0 242.6 161.6 242.6 161.8 243.1C161.9 243.5 161.6 245.9 161.2 248.5C160.8 251.1 160.3 254.1 160.2 255.1C159.9 257.3 159.4 257.6 155.2 258.5C153.6 258.8 151.5 259.3 150.5 259.6C148.8 260.0 147.5 260.1 147.5 259.9ZM420.5 243.9C421.4 242.4 420.8 235.8 419.4 229.1L418.8 226.5 L421.3 223.9C422.6 222.5 424.3 221.2 424.9 221.0C426.3 220.4 426.3 219.6 424.7 218.9C423.6 218.4 423.3 218.5 420.9 221.2L418.2 224.1 L414.7 222.1C410.4 219.6 408.9 219.4 409.1 221.4C409.2 222.5 409.8 223.0 412.0 224.1C415.2 225.8 415.2 225.6 416.2 236.6C416.6 240.7 417.1 244.2 417.3 244.5C417.8 245.4 419.9 245.0 420.5 243.9ZM341.8 242.5C345.4 242.5 347.1 241.6 346.2 240.2C345.7 239.4 344.9 239.3 340.3 239.3L334.9 239.3 L335.0 232.5C335.2 223.0 335.2 222.9 334.1 223.1C332.9 223.3 332.5 226.1 332.2 235.2C332.0 240.3 332.1 242.7 332.4 243.0C332.7 243.2 334.3 243.1 335.9 242.9C337.5 242.7 340.1 242.6 341.8 242.5ZM298.9 242.4C299.2 242.0 299.2 239.8 299.0 236.5C298.8 233.6 298.6 231.2 298.7 231.2C298.7 231.1 300.2 230.8 302.0 230.5C305.1 230.0 307.0 229.0 307.0 227.7C307.0 226.3 306.4 226.3 292.0 228.9C288.1 229.5 289.5 231.3 294.1 231.5C295.9 231.5 295.9 231.5 296.3 234.1C296.7 237.9 296.4 239.7 295.3 239.9C291.3 240.7 286.1 235.0 286.0 229.8C286.0 224.7 290.5 221.0 296.7 221.0C299.8 221.0 300.0 220.9 300.3 219.8C300.8 217.7 300.2 217.3 296.1 217.6C290.9 218.0 286.4 220.3 284.2 223.8C282.9 226.0 282.8 226.5 282.9 230.1C283.0 235.2 284.8 238.5 288.9 241.2C291.4 242.8 292.0 243.0 295.0 243.0C297.1 243.0 298.6 242.8 298.9 242.4ZM310.0 240.3C310.0 238.3 310.9 234.1 311.7 231.9C312.1 230.9 319.5 230.2 320.1 231.2C320.3 231.5 320.5 233.5 320.5 235.6C320.5 240.0 320.8 241.0 322.0 241.0C323.8 241.0 324.2 239.6 324.2 234.0C324.2 223.7 320.8 218.6 315.2 220.5C313.7 221.0 312.8 222.4 311.5 226.0C311.1 227.0 310.6 227.9 310.3 228.1C310.0 228.3 309.8 229.3 309.7 230.3C309.7 231.4 309.3 233.7 308.8 235.4C308.1 238.2 308.1 239.6 308.8 241.9C309.2 243.3 310.0 242.3 310.0 240.3ZM392.3 240.2C392.5 239.2 392.5 236.9 392.4 235.0C392.0 229.1 392.4 229.2 399.5 235.9C403.7 240.0 405.5 240.9 406.2 239.2C406.8 237.6 406.4 236.9 402.2 232.8L397.8 228.6 L400.2 227.3C401.5 226.5 402.9 225.4 403.3 224.8C404.2 223.6 404.2 220.4 403.4 219.6C402.5 218.7 396.6 218.8 394.0 219.8C392.8 220.2 391.2 220.4 390.5 220.2C388.7 219.8 387.8 222.0 388.2 225.4C388.4 226.7 388.7 230.7 388.8 234.2C389.1 241.9 389.1 242.0 390.7 242.0C391.7 242.0 392.0 241.7 392.3 240.2ZM359.4 240.2C364.0 239.8 365.6 239.1 364.6 237.8C364.1 237.2 362.7 237.0 358.6 236.9L353.2 236.8 L353.1 229.3C353.0 222.1 353.0 221.9 351.9 222.1C351.2 222.2 350.7 222.7 350.5 223.6C349.9 225.5 350.1 239.6 350.7 240.4C351.0 240.9 351.7 241.0 353.2 240.8C354.3 240.7 357.1 240.4 359.4 240.2ZM382.5 239.8C383.2 239.5 383.8 238.7 383.9 238.1C384.1 237.0 384.0 237.0 378.3 237.0L372.5 237.0 L372.5 234.0C372.5 230.6 372.6 230.5 377.0 229.5C379.9 228.8 381.5 228.0 381.5 227.3C381.5 226.9 380.7 227.0 375.5 228.0C374.0 228.2 372.8 228.4 372.7 228.4C372.6 228.3 372.5 227.1 372.4 225.7L372.2 223.2 L375.0 223.2C381.2 223.2 382.0 223.1 382.0 222.0C382.0 221.1 381.7 221.0 376.1 221.0C369.5 221.0 368.1 221.5 369.4 223.6C370.2 224.8 370.1 236.7 369.4 238.4C368.3 240.6 369.5 241.0 375.7 240.7C378.7 240.5 381.8 240.1 382.5 239.8ZM98.2 226.4C96.3 225.5 94.2 224.6 93.5 224.3C92.8 224.0 91.0 222.8 89.5 221.6C87.9 220.4 85.1 218.6 83.2 217.6C78.5 215.1 75.1 212.9 74.8 212.1C74.6 211.8 75.3 210.6 76.2 209.6C78.6 206.8 79.9 204.8 80.7 202.5C81.1 201.4 82.5 199.2 83.7 197.6C85.7 195.0 86.0 194.4 86.0 192.2C86.0 188.3 85.4 188.0 78.4 188.8C75.6 189.1 75.5 189.1 75.2 187.7C75.1 186.9 74.7 185.7 74.5 185.1C73.4 182.5 73.9 180.1 75.9 178.1C77.0 177.0 78.6 174.7 79.5 173.0C80.5 171.2 82.1 169.1 83.6 167.9C85.0 166.8 86.9 164.7 87.9 163.2C93.2 155.7 95.1 153.0 97.5 150.2C98.9 148.6 100.6 146.1 101.3 144.7C102.7 141.9 106.1 138.0 107.2 138.0C108.4 138.0 114.6 142.1 120.0 146.4C122.9 148.7 126.8 151.4 128.7 152.4C132.4 154.2 136.5 156.9 139.5 159.4L141.2 160.9 L140.1 163.1C139.5 164.3 138.5 166.0 137.8 166.9C137.1 167.7 135.9 169.8 135.0 171.5C134.2 173.2 132.7 175.9 131.6 177.4C126.4 184.6 124.8 187.0 123.0 190.7C121.9 192.9 120.5 195.2 120.0 195.8C119.4 196.4 117.0 200.8 114.6 205.6C112.1 210.3 109.4 215.3 108.6 216.6C107.7 217.8 107.0 219.1 107.0 219.2C107.0 220.1 102.7 228.0 102.3 228.0C102.0 227.9 100.2 227.2 98.2 226.4ZM313.3 227.6C312.8 226.8 314.5 224.0 315.8 223.4C317.9 222.4 320.5 225.9 318.6 227.3C317.6 228.0 313.7 228.2 313.3 227.6ZM391.8 226.2C390.8 223.7 391.6 222.5 394.8 221.6C399.1 220.3 402.6 221.3 400.9 223.3C398.5 226.2 392.5 228.1 391.8 226.2ZM271.4 222.0C273.8 220.5 273.4 219.2 270.2 217.5C268.8 216.8 267.1 215.7 266.5 215.1C265.8 214.4 264.7 213.5 264.1 213.1C262.9 212.3 261.8 210.3 260.2 205.9C259.2 203.1 259.5 196.9 260.8 194.4C261.9 192.3 262.5 192.7 262.2 195.5C261.9 197.8 262.0 198.0 263.2 198.6C265.5 199.6 266.8 198.2 267.2 194.1C267.3 192.2 267.6 190.0 267.8 189.1C268.3 186.5 266.6 186.1 260.6 187.2C254.7 188.4 253.9 188.7 254.1 190.2C254.2 191.0 254.7 191.3 255.8 191.4C257.9 191.7 258.1 192.1 257.0 194.3C256.5 195.4 255.9 197.6 255.6 199.3C253.8 209.6 256.2 215.2 264.4 220.6C268.6 223.3 269.1 223.4 271.4 222.0ZM152.1 216.6C153.2 215.5 153.2 215.5 152.5 207.9C152.2 203.7 151.7 199.9 151.5 199.5C151.3 199.1 150.7 197.8 150.3 196.8C148.1 191.5 143.8 189.9 140.7 193.2C137.7 196.4 136.8 199.8 137.2 206.8C137.6 212.9 138.2 216.2 139.1 217.4C139.6 217.9 141.1 218.0 145.3 217.9C150.4 217.8 151.1 217.6 152.1 216.6ZM140.4 212.6C140.2 212.4 140.3 209.6 140.5 206.4C140.8 201.4 141.0 200.3 142.2 198.3C142.9 197.0 143.8 196.0 144.0 196.0C144.3 196.0 145.1 197.3 145.8 198.8C146.9 201.3 147.0 202.2 146.9 207.2L146.8 212.8 L143.7 212.9C142.0 213.0 140.5 212.9 140.4 212.6ZM324.4 196.1C324.5 195.7 325.3 194.8 326.0 194.2L327.2 193.1 L327.2 175.2C327.1 165.4 327.0 156.0 326.8 154.5L326.5 151.6 L328.4 151.0C330.4 150.3 333.7 148.4 335.3 147.0C335.8 146.5 337.9 145.5 339.8 144.9C343.2 143.7 346.2 141.9 353.1 136.6C356.0 134.4 360.2 132.5 362.1 132.5C362.7 132.5 362.3 136.0 361.2 141.2C360.7 143.5 360.4 148.6 360.2 155.2C360.1 161.0 359.9 168.8 359.7 172.6C359.6 177.0 359.6 179.8 360.0 180.4C360.8 181.9 363.5 182.7 365.8 182.0C366.9 181.8 371.5 181.3 376.0 181.0C384.5 180.4 388.9 179.9 393.2 179.0C394.6 178.7 397.4 178.2 399.5 178.0C401.6 177.8 405.3 177.3 407.8 176.8C410.2 176.4 415.5 175.7 419.4 175.3C425.8 174.6 427.0 174.3 430.3 172.8C432.3 171.8 434.3 170.5 434.7 169.9L435.5 168.8 L436.9 170.2C438.6 171.8 441.6 173.4 443.9 173.8C445.3 174.1 445.8 173.9 446.9 172.8C447.6 172.1 448.9 171.4 449.8 171.2C450.6 171.0 452.9 170.3 454.9 169.7C457.3 168.9 460.8 168.3 464.4 168.0C477.0 167.0 481.5 166.4 487.5 165.0C490.9 164.1 495.9 163.0 498.5 162.5C501.1 161.9 504.3 161.2 505.5 160.8C506.7 160.4 510.5 159.7 513.9 159.2C521.0 158.3 522.1 158.0 523.1 156.4C524.0 154.9 524.3 114.3 523.5 102.5C523.2 98.2 522.8 87.6 522.7 78.8C522.5 70.0 522.2 62.4 522.0 61.7C521.1 59.3 513.6 59.8 504.6 62.8C500.2 64.3 500.0 64.3 497.9 63.0C497.0 62.5 495.9 62.0 495.6 62.0C495.2 62.0 490.7 60.3 485.6 58.3C477.4 55.1 467.8 51.8 462.5 50.5C461.5 50.2 459.3 49.6 457.5 49.1C455.7 48.6 452.3 47.6 450.0 47.0C443.9 45.4 444.3 45.9 444.1 39.9C444.0 33.3 443.8 32.8 442.0 32.0C439.9 31.1 430.1 31.8 426.8 33.1C425.4 33.6 423.6 34.0 422.8 34.0C422.1 34.0 421.0 34.2 420.5 34.5C419.4 35.1 418.7 34.4 418.4 32.0C418.2 31.0 417.7 28.3 417.3 26.0C416.8 23.7 416.4 21.1 416.3 20.4C416.2 19.6 416.1 18.8 416.1 18.6C416.0 18.4 413.7 17.8 410.9 17.3C406.5 16.6 402.7 16.2 387.2 14.8C384.9 14.6 382.7 14.2 371.0 12.2C363.4 10.9 352.2 9.6 339.7 8.5C334.4 8.0 333.4 8.0 332.4 8.7C331.8 9.1 328.5 9.8 324.8 10.2C310.6 11.9 302.2 13.3 295.0 15.2C289.4 16.7 282.5 18.0 280.5 18.0C279.4 18.0 278.4 18.2 278.3 18.4C278.1 18.7 275.7 19.0 272.9 19.2C266.6 19.7 262.0 20.5 256.8 22.3C254.6 23.0 251.1 24.0 249.0 24.5C246.9 25.0 244.3 25.7 243.2 26.0C242.2 26.3 240.4 26.7 239.4 27.0C238.4 27.2 236.7 27.8 235.5 28.4C234.4 29.0 233.1 29.5 232.7 29.5C232.3 29.5 231.3 29.8 230.5 30.2C229.7 30.7 228.3 31.4 227.4 31.8C225.0 33.0 216.5 38.0 214.9 39.1C214.2 39.6 213.3 40.0 213.0 40.0C211.1 40.0 189.9 52.8 189.3 54.3C189.2 54.7 189.3 55.6 189.6 56.5C190.2 58.3 189.8 78.0 189.0 82.2C188.7 83.9 188.4 91.4 188.3 99.0C188.1 106.6 187.8 115.9 187.4 119.7C187.1 123.9 187.0 129.1 187.2 132.5C187.4 135.7 187.6 144.9 187.6 153.0C187.5 170.4 188.1 182.2 189.1 184.3C190.0 186.3 192.7 186.4 194.1 184.4C195.1 183.2 195.1 182.8 194.5 174.7C194.2 170.0 193.7 160.8 193.5 154.2C193.2 147.7 192.8 140.7 192.5 138.8C192.1 134.7 192.3 134.2 194.3 135.0C196.9 136.1 205.6 137.5 212.8 138.0C216.6 138.3 221.0 138.7 222.5 139.0C231.8 140.4 235.4 141.2 236.8 142.0C238.1 142.7 238.8 142.8 240.4 142.5C241.9 142.1 244.0 142.3 248.4 143.0C251.6 143.5 255.6 144.0 257.2 144.0C258.9 144.1 261.1 144.3 262.1 144.6C263.1 144.8 267.3 145.4 271.4 145.8C284.6 147.2 286.7 147.4 287.5 147.7C287.9 147.8 292.4 148.1 297.5 148.2C303.0 148.3 308.4 148.7 310.8 149.2C312.9 149.6 316.3 150.0 318.1 150.0C322.3 150.0 322.2 149.9 321.5 158.9C321.0 165.9 320.8 173.3 320.9 186.8C321.0 193.6 321.1 194.5 322.0 195.7C323.2 197.2 323.9 197.3 324.4 196.1ZM364.8 154.7L364.8 131.9 L368.5 128.6C373.4 124.1 376.7 121.6 378.4 121.3C380.8 120.7 381.0 119.8 380.4 112.5C379.9 107.5 380.0 105.1 380.4 102.5C380.7 100.5 381.0 98.0 381.0 96.8C381.0 95.5 381.3 94.4 381.8 94.0C382.4 93.5 382.5 93.7 382.5 95.9C382.5 98.6 383.2 101.0 384.2 101.6C385.5 102.4 387.5 102.0 388.3 100.7C390.0 98.2 388.9 88.0 386.8 86.9C385.5 86.2 383.4 87.9 382.9 89.9C382.5 92.1 382.0 92.5 382.0 90.6C382.0 89.7 381.7 88.5 381.4 87.8C380.6 85.9 381.5 85.3 386.0 84.5C388.1 84.2 391.0 83.5 392.5 83.0C394.0 82.5 396.6 81.9 398.2 81.5C404.3 80.4 406.3 79.9 407.5 79.5C408.2 79.2 411.7 78.8 415.2 78.5C418.8 78.2 423.1 77.6 424.7 77.2C426.4 76.8 428.5 76.5 429.4 76.5L431.1 76.5 L430.8 81.1C430.0 92.4 429.5 99.9 429.0 108.8C428.7 114.0 428.3 123.1 427.9 129.0C427.6 134.9 427.4 140.2 427.4 140.8C428.1 165.3 428.1 167.4 427.2 167.7C424.7 168.4 419.8 169.0 419.5 168.7C419.2 168.4 419.3 167.3 419.5 166.2C420.2 163.2 420.1 127.9 419.3 124.4C418.2 118.8 417.1 118.7 404.4 123.1C402.9 123.6 399.4 124.3 396.7 124.7C389.5 125.7 383.6 127.0 380.5 128.2L377.8 129.3 L377.6 141.0C377.5 147.5 377.4 157.9 377.4 164.2L377.2 175.7 L373.5 176.3C371.4 176.6 368.6 177.0 367.2 177.1L364.8 177.4 L364.8 154.7ZM138.8 175.0C138.4 174.4 140.1 170.9 141.8 168.9C142.4 168.1 143.2 166.7 143.6 165.8C144.4 163.5 145.1 163.5 146.7 166.1C147.4 167.3 149.0 169.3 150.2 170.7C151.5 172.0 152.5 173.2 152.5 173.5C152.5 173.9 149.2 174.4 145.0 174.7C143.8 174.8 141.9 175.0 140.9 175.2C139.8 175.5 139.0 175.4 138.8 175.0ZM384.3 174.6C384.2 174.4 384.1 170.7 384.1 166.2C384.0 159.5 383.0 147.8 381.7 139.8C381.6 138.7 381.4 136.5 381.3 135.0L381.2 132.3 L387.2 131.4C396.8 130.1 401.9 129.0 407.4 127.2C410.2 126.3 412.9 125.5 413.4 125.5C414.2 125.5 414.2 126.8 414.1 146.4L414.0 167.2 L412.6 168.6C411.9 169.4 410.9 170.0 410.4 170.0C409.9 170.0 408.2 170.3 406.6 170.8C403.7 171.5 398.8 172.4 395.2 172.8C394.1 173.0 391.8 173.4 390.0 173.8C388.2 174.2 386.3 174.6 385.7 174.8C385.1 174.9 384.5 174.8 384.3 174.6ZM72.8 174.1C72.3 173.3 69.8 165.6 67.9 158.8C66.9 155.1 65.4 150.8 64.8 149.5C63.3 146.6 62.0 143.1 62.0 141.9C62.0 140.8 62.8 140.6 69.8 140.0C76.8 139.4 80.5 138.8 86.2 137.3C93.4 135.5 95.5 135.1 99.2 134.7L102.8 134.4 L100.7 136.2C99.5 137.2 97.7 139.5 96.7 141.3C95.7 143.2 93.7 145.9 92.3 147.5C89.5 150.6 83.0 159.7 83.0 160.5C83.0 160.8 81.6 162.5 79.8 164.4C77.8 166.5 76.1 169.0 75.1 171.1C73.5 174.5 73.3 174.8 72.8 174.1ZM152.4 166.4C149.8 164.1 147.0 160.0 147.0 158.4C147.0 157.0 146.2 156.5 143.7 156.5C142.0 156.5 139.7 154.9 137.1 151.9C136.5 151.2 134.5 149.7 132.6 148.7C130.8 147.7 126.7 144.9 123.5 142.5C120.2 140.0 116.1 137.5 113.9 136.5C111.7 135.6 110.0 134.5 110.0 134.2C110.0 133.8 112.1 133.5 117.4 133.3C121.4 133.1 126.1 132.8 127.8 132.5C129.5 132.2 132.1 132.0 133.6 132.0C136.2 132.0 144.2 130.8 145.0 130.3C145.6 129.9 146.4 131.0 146.8 132.8C146.9 133.6 147.5 135.5 148.0 137.0C148.5 138.5 149.2 140.9 149.5 142.2C150.4 146.4 151.5 151.6 152.0 154.0C152.2 155.2 153.2 158.7 154.2 161.6C156.5 168.5 156.1 169.6 152.4 166.4ZM439.5 165.5C438.6 164.7 437.5 164.0 437.2 164.0C436.9 164.0 436.3 163.6 435.9 163.1C435.2 162.4 435.1 160.0 435.2 142.8C435.3 132.0 435.4 123.0 435.4 122.8C435.5 121.3 435.0 85.2 434.8 81.9C434.7 79.7 434.7 78.0 434.9 78.0C435.1 78.0 436.9 79.0 438.8 80.1C440.8 81.3 443.1 82.6 444.0 83.1C445.3 83.9 445.5 84.2 445.3 85.4C445.1 86.1 444.8 90.2 444.5 94.4C444.3 98.6 443.9 102.2 443.7 102.5C443.4 103.0 442.4 119.7 442.3 125.8C442.3 127.4 442.5 132.0 442.7 136.0C443.2 145.4 442.6 167.0 441.8 167.0C441.5 167.0 440.5 166.3 439.5 165.5ZM449.2 165.9C448.5 164.8 448.2 127.1 448.6 94.8C448.7 85.7 448.9 84.1 449.6 83.0C450.1 82.3 450.5 81.4 450.5 80.9C450.5 80.3 450.9 80.0 451.6 80.0C452.2 80.0 453.7 79.7 454.8 79.3C456.0 78.9 458.5 78.3 460.3 78.0C462.2 77.8 464.6 77.3 465.8 77.1C471.7 75.6 473.3 75.1 474.2 74.7C474.8 74.4 477.6 73.9 480.5 73.5C491.7 72.3 499.9 70.6 506.5 68.2C508.3 67.6 511.3 66.7 513.2 66.3C515.2 65.9 517.3 65.4 518.0 65.2L519.2 64.8 L518.8 68.0C517.2 83.9 517.0 88.3 517.0 112.5C516.9 127.0 517.2 139.8 517.5 142.5C517.7 145.1 518.0 148.4 518.0 149.8L518.0 152.4 L515.6 152.7C511.8 153.2 503.5 154.9 499.8 155.9C497.8 156.5 494.8 157.3 493.0 157.7C491.2 158.1 487.7 159.0 485.2 159.7C482.8 160.4 478.5 161.1 475.8 161.4C473.0 161.7 469.9 162.1 468.8 162.3C467.6 162.4 464.9 162.7 462.8 163.0C458.2 163.5 455.0 164.2 453.1 165.2C450.8 166.4 449.6 166.6 449.2 165.9ZM22.9 151.6C24.3 150.6 26.5 149.2 27.7 148.4C30.6 146.7 31.1 144.5 29.1 142.3C28.3 141.4 26.8 139.7 25.8 138.4C24.7 137.0 23.5 136.0 23.0 136.0C22.1 136.0 22.0 136.4 22.0 138.4C22.0 139.7 22.4 141.2 22.8 141.7C24.7 144.3 21.7 144.2 18.3 141.5C15.9 139.7 15.1 138.5 12.4 132.9C12.2 132.4 12.0 130.5 12.0 128.7C12.0 125.8 12.3 124.9 14.1 121.3C15.2 119.1 16.8 116.3 17.6 115.2C18.7 113.5 18.9 113.0 18.3 112.5C16.9 111.4 12.0 117.2 9.3 123.2C8.0 126.1 7.9 126.6 8.1 131.7C8.4 139.6 10.7 143.9 16.4 147.3C17.8 148.1 18.0 148.4 17.7 149.8C16.9 153.9 18.9 154.5 22.9 151.6ZM327.3 141.4C327.2 138.6 326.9 127.6 326.7 117.0C326.4 94.8 325.9 83.6 325.0 75.4C324.3 69.7 324.3 69.6 325.4 68.3C326.0 67.5 326.5 66.6 326.5 66.2C326.5 65.8 327.3 65.1 328.4 64.7C333.4 62.5 334.9 61.8 336.5 60.5C339.4 58.2 348.3 53.4 352.5 51.9C357.1 50.2 361.2 48.2 365.8 45.2C368.7 43.3 371.8 41.9 375.4 40.7C381.3 38.7 381.6 38.6 385.7 35.9C389.5 33.4 396.1 29.8 399.4 28.5C400.8 28.0 404.4 26.4 407.3 25.0C410.2 23.6 412.6 22.5 412.7 22.5C412.8 22.5 413.1 25.2 413.5 28.4C414.0 33.2 414.0 35.5 413.5 40.3C413.1 44.3 413.0 48.2 413.3 52.5C413.6 57.6 413.6 73.5 413.3 73.8C413.3 73.9 412.6 74.0 411.7 74.1L410.2 74.2 L410.2 61.5C410.2 49.0 409.6 42.7 408.3 41.1C407.6 40.1 404.3 40.6 400.9 42.2C399.4 42.9 396.9 43.9 395.3 44.5C392.0 45.8 390.8 47.4 392.1 48.9C392.8 49.6 392.8 50.2 392.5 52.0C392.2 53.2 392.0 59.7 392.0 66.4C392.0 80.1 392.3 79.1 387.5 80.5C386.3 80.8 384.2 81.4 383.0 81.8C381.8 82.2 380.4 82.5 379.9 82.5C378.5 82.5 378.0 84.1 378.0 88.4C378.0 90.6 377.7 93.6 377.3 95.1C376.9 96.6 376.2 99.0 375.8 100.5C375.2 102.4 375.0 105.6 375.0 111.0L375.0 118.8 L373.6 119.6C372.9 120.1 370.6 121.9 368.7 123.6C365.0 126.9 361.6 129.0 360.0 129.0C357.8 129.0 352.9 131.4 348.8 134.5C344.1 138.0 339.9 140.5 338.6 140.5C337.5 140.5 334.5 142.0 332.5 143.5C331.5 144.3 330.0 145.2 329.2 145.7L327.6 146.5 L327.3 141.4ZM316.9 144.8C316.2 144.1 310.6 143.5 300.5 143.0C294.6 142.8 287.6 142.2 285.0 141.8C282.4 141.4 276.4 140.7 271.8 140.2C267.1 139.8 262.1 139.3 260.7 139.2C256.9 138.8 256.9 138.8 257.3 123.3C257.8 107.4 257.8 106.7 257.3 96.9C256.8 86.8 257.2 87.2 248.6 87.7C242.6 88.1 240.1 88.7 239.2 90.0C238.9 90.6 237.7 104.5 237.2 113.8C237.1 116.5 236.7 120.0 236.4 121.5C236.2 123.0 235.8 126.8 235.6 130.0L235.2 135.8 L233.5 135.7C232.5 135.6 230.4 135.4 228.8 135.0C227.1 134.7 222.9 134.2 219.5 134.0C202.6 132.6 199.0 132.2 193.9 131.2C191.7 130.8 191.8 131.8 191.9 119.3C192.0 113.8 192.2 111.1 192.6 110.6C193.3 109.8 193.7 91.8 193.5 69.1L193.4 57.9 L197.3 58.2C199.5 58.3 205.1 58.7 209.8 58.9C214.5 59.1 218.5 59.5 218.8 59.6C219.0 59.8 222.4 60.2 226.3 60.5C234.6 61.1 241.2 61.9 247.2 62.8C249.7 63.2 254.4 63.7 257.8 64.0C269.1 64.9 274.8 65.5 279.8 66.3C282.6 66.7 285.9 67.1 287.3 67.2C288.6 67.3 291.8 67.7 294.2 68.0C296.7 68.3 303.7 68.7 309.8 68.8L320.8 69.0 L320.7 79.9C320.7 85.8 320.7 99.0 320.6 109.0C320.5 124.7 320.7 140.4 321.1 143.8C321.2 144.6 320.9 144.8 319.2 144.9C318.1 145.0 317.1 144.9 316.9 144.8ZM246.0 137.3C241.9 136.2 241.5 135.8 241.8 133.1C241.9 131.8 242.2 122.6 242.6 112.7L243.2 94.6 L245.4 94.3C246.6 94.1 248.7 94.0 250.1 94.0L252.5 94.0 L252.3 101.1C252.1 105.0 251.9 113.6 251.8 120.0C251.6 126.5 251.4 133.2 251.2 134.9C250.8 138.4 250.5 138.5 246.0 137.3ZM60.3 101.7C64.0 100.0 65.2 97.6 65.2 92.0C65.3 83.7 61.6 81.2 51.9 82.9C50.8 83.1 48.5 93.0 48.5 97.6C48.5 102.9 53.7 104.7 60.3 101.7ZM32.5 102.0C32.9 101.3 33.0 99.8 32.8 98.0C32.3 94.4 32.6 94.2 37.6 93.9L41.5 93.6 L41.6 97.4C41.7 100.9 41.8 101.3 42.8 101.4C45.1 101.7 45.3 99.5 44.2 85.1C43.9 81.6 43.8 81.0 43.1 81.1C42.4 81.2 42.2 82.2 41.9 85.7C41.7 88.1 41.4 90.2 41.3 90.4C41.1 90.5 39.7 90.9 38.1 91.1C32.8 91.9 33.3 92.1 33.1 88.5C33.0 86.6 33.2 84.8 33.6 84.1C34.3 82.8 33.5 81.9 31.8 82.1C30.4 82.3 29.7 85.8 29.2 94.5C29.0 99.8 29.0 101.7 29.5 102.2C30.4 103.3 31.9 103.2 32.5 102.0ZM97.1 102.3C100.4 100.9 103.8 97.1 102.5 96.2C102.2 96.1 102.0 95.2 102.0 94.3C102.0 91.7 99.5 89.9 94.8 89.1C91.9 88.6 91.7 86.7 94.2 84.2C96.3 82.1 97.4 82.0 98.0 83.9C98.5 85.1 98.6 85.2 99.1 84.4C100.1 82.5 99.4 80.8 97.4 80.4C93.8 79.5 89.5 84.0 89.5 88.7C89.5 90.7 90.9 91.6 94.6 92.2C95.7 92.4 97.1 93.1 97.9 93.7C99.1 94.8 99.2 95.0 98.6 96.2C98.3 96.9 97.3 97.8 96.4 98.3C94.8 99.1 94.7 99.1 92.7 98.0C91.5 97.4 90.2 97.0 89.8 97.2C88.6 97.6 88.9 99.7 90.4 101.1C92.6 103.2 94.3 103.5 97.1 102.3ZM76.9 101.2C80.7 99.6 83.6 94.5 84.3 87.7C84.4 86.1 84.8 84.1 85.0 83.3C85.6 81.5 84.8 80.0 83.3 80.0C81.7 80.0 81.0 81.8 81.0 85.9C81.0 93.2 76.0 100.7 73.1 97.9C72.3 97.0 71.2 92.6 70.2 85.6C69.8 83.2 69.2 82.9 68.4 84.7C67.7 86.3 68.6 96.1 69.8 99.0C71.0 102.0 73.3 102.7 76.9 101.2ZM121.8 100.4C123.1 99.8 123.6 98.8 123.2 97.7C122.9 97.0 122.1 96.9 117.6 97.1L112.2 97.2 L112.2 94.8L112.2 92.2 L117.4 92.0C121.2 91.8 122.7 91.6 123.0 91.0C124.0 89.5 123.2 89.2 117.9 89.4L112.6 89.6 L112.4 87.2C112.3 85.8 112.3 84.6 112.4 84.4C112.5 84.2 114.2 84.0 116.3 84.0C120.3 84.0 122.6 83.3 122.4 82.0C122.2 80.8 108.6 80.6 108.2 81.8C107.9 82.4 108.2 83.0 108.9 83.5C110.4 84.7 110.5 88.7 109.0 89.6C107.9 90.3 107.7 91.7 108.5 92.2C108.8 92.4 109.0 94.2 109.0 96.3C109.0 101.3 109.5 101.7 115.9 101.3C118.5 101.1 121.1 100.7 121.8 100.4ZM52.1 98.9C51.1 98.0 51.0 97.5 51.2 95.3C52.4 83.8 52.8 82.8 54.7 85.0C55.2 85.7 55.9 86.0 56.4 85.8C57.7 85.3 60.2 86.4 61.1 88.0C61.7 88.9 62.0 90.5 62.0 92.5C62.0 95.4 61.9 95.7 60.3 97.3C59.4 98.2 58.1 99.0 57.6 99.0C57.0 99.0 56.4 99.2 56.2 99.5C55.7 100.4 53.2 100.0 52.1 98.9ZM399.7 97.1L400.6 95.3 L401.6 96.6C403.9 99.9 406.0 97.8 406.4 91.8C406.7 86.5 405.8 84.0 403.6 84.0C401.9 84.0 400.5 85.5 400.5 87.2C400.5 88.1 400.3 88.0 399.0 86.6C397.5 84.9 397.1 84.9 395.4 86.4C394.6 87.1 394.4 87.1 393.6 86.3C392.4 85.3 391.8 85.3 390.8 86.3C389.9 87.2 389.7 93.9 390.5 95.5C391.2 96.8 392.8 96.8 393.6 95.5C394.4 94.2 395.0 94.2 395.0 95.5C395.0 99.2 398.2 100.3 399.7 97.1ZM442.0 90.3C442.0 87.4 441.8 85.4 441.4 84.9C440.6 83.9 437.6 83.3 436.7 84.1C435.8 84.8 435.7 92.7 436.6 93.5C437.0 93.7 437.9 94.5 438.7 95.2C440.1 96.4 440.2 96.5 441.1 95.7C441.8 95.0 442.0 94.1 442.0 90.3ZM456.4 92.4C457.4 88.3 456.5 83.0 454.8 83.0C452.9 83.0 451.5 92.9 453.2 94.7C454.5 95.9 455.8 95.0 456.4 92.4ZM411.4 93.9C413.1 90.7 413.1 87.8 411.4 84.1C410.7 82.7 408.3 82.6 407.5 84.0C406.7 85.5 406.9 91.8 407.8 93.5C408.7 95.3 410.6 95.5 411.4 93.9ZM417.5 94.3C417.8 93.9 418.3 92.6 418.7 91.4L419.3 89.2 L419.9 91.1C420.6 93.1 421.8 93.8 422.8 92.9C423.4 92.5 423.8 92.5 424.8 93.0C426.6 94.0 427.6 93.2 428.2 90.4C428.4 89.2 428.6 88.0 428.5 87.8C428.0 82.2 427.3 80.4 425.8 80.6C425.1 80.7 424.6 81.3 424.3 82.6C423.7 85.1 423.0 85.0 423.0 82.5C423.0 79.3 420.5 79.9 419.5 83.3C419.2 84.6 419.1 84.7 418.8 83.8C417.8 80.9 417.5 80.5 416.3 80.5C414.2 80.5 413.8 81.7 413.8 87.5C413.8 90.5 414.1 93.3 414.5 93.9C415.1 95.1 416.6 95.3 417.5 94.3ZM462.9 93.4C463.3 93.0 463.8 93.0 464.8 93.4C466.6 94.2 467.8 93.2 468.3 90.4C468.6 88.2 469.7 88.1 469.9 90.3C470.3 93.2 472.5 94.0 473.5 91.6C474.4 89.4 474.4 80.9 473.6 79.8C472.5 78.5 470.6 78.8 469.6 80.5C468.8 81.8 468.6 81.9 468.0 81.3C467.3 80.4 465.8 80.3 464.5 81.0C463.9 81.3 463.5 81.3 463.3 81.0C462.7 80.1 460.1 80.4 459.5 81.5C458.7 82.9 458.9 90.2 459.7 92.3C460.5 94.1 461.8 94.5 462.9 93.4ZM479.4 90.9C480.2 89.9 480.6 82.7 480.0 80.5C478.9 76.5 475.8 76.8 475.3 81.0C474.4 87.2 477.1 93.7 479.4 90.9ZM485.7 90.7C486.1 90.3 486.6 89.4 486.8 88.7C487.1 87.5 487.2 87.5 488.1 88.3C488.8 89.0 489.3 89.1 489.9 88.7C491.0 88.0 491.4 79.4 490.5 78.2C489.8 77.4 487.9 77.3 487.2 78.0C486.8 78.4 486.3 78.4 485.6 78.0C484.1 77.2 482.0 77.4 481.7 78.3C481.2 79.4 482.3 89.2 483.0 90.4C483.6 91.7 484.6 91.8 485.7 90.7ZM347.2 88.9C349.2 87.8 352.1 85.8 353.7 84.6C355.3 83.4 357.3 82.2 358.2 81.9C360.3 81.2 361.0 80.2 361.0 77.7C361.0 73.7 359.3 71.1 357.2 71.8C356.7 72.0 355.4 72.8 354.2 73.5C353.1 74.2 351.5 75.1 350.5 75.5C349.5 75.9 348.5 76.3 348.3 76.6C348.0 76.8 347.5 77.0 347.1 77.0C346.7 77.0 345.2 77.7 343.7 78.6C340.8 80.4 340.6 80.7 340.3 86.1C340.0 91.5 341.7 92.2 347.2 88.9ZM497.7 86.9C497.9 86.3 498.0 85.3 498.1 84.8C498.3 83.3 499.4 83.3 499.8 84.7C499.9 85.4 500.5 86.3 501.0 86.8C502.0 87.6 502.1 87.6 503.0 86.7C504.0 85.9 504.0 85.4 503.7 83.0C503.4 80.7 503.5 80.4 504.1 80.9C504.5 81.2 505.0 82.2 505.2 82.9C505.8 86.1 508.5 85.0 508.9 81.4C509.2 78.0 508.7 75.6 507.3 74.7C505.8 73.7 504.0 74.5 504.0 76.1L504.0 77.2 L503.0 76.1C501.7 74.5 500.0 74.8 499.0 76.8L498.2 78.4 L497.1 77.3C495.3 75.5 494.3 76.7 494.1 80.8C493.9 85.5 494.6 88.0 496.3 88.0C497.1 88.0 497.6 87.7 497.7 86.9ZM344.9 83.5C344.6 82.3 345.1 81.9 347.8 80.8C350.9 79.5 352.3 79.9 350.0 81.4C349.0 82.0 347.7 82.9 347.0 83.5C345.6 84.8 345.2 84.8 344.9 83.5ZM514.8 81.3C516.6 76.9 514.3 71.5 511.9 74.6C510.8 76.1 510.6 78.6 511.3 81.9C511.7 83.8 513.9 83.4 514.8 81.3ZM445.2 76.8C444.7 76.5 442.2 75.3 439.8 74.2C434.3 71.9 430.1 71.5 424.2 72.7C422.1 73.2 420.2 73.4 420.0 73.2C419.9 73.0 419.7 68.7 419.6 63.6C419.5 58.4 419.4 50.9 419.4 46.8L419.2 39.2 L422.8 38.9C424.7 38.8 427.1 38.3 428.1 37.8C429.1 37.4 431.6 36.9 433.6 36.8C435.6 36.6 437.7 36.3 438.3 36.2C439.3 36.0 439.4 36.1 439.1 40.6C439.0 43.2 438.7 45.5 438.4 45.7C437.8 46.4 437.9 48.9 438.5 49.2C438.8 49.4 439.0 50.3 439.0 51.2C439.0 55.1 443.0 58.4 444.1 55.4C444.5 54.3 445.5 54.2 445.5 55.2C445.5 56.3 446.9 57.3 447.6 56.6C448.5 55.7 449.3 55.9 449.9 57.2C450.6 58.7 451.3 58.8 452.6 57.7C453.4 56.9 453.5 56.9 454.0 58.4C455.0 61.3 457.2 60.9 457.2 57.9C457.3 55.3 458.7 55.7 459.0 58.4C459.2 59.6 459.6 60.8 459.9 61.1C460.8 62.0 462.0 61.2 462.0 59.5C462.0 58.7 462.2 58.0 462.5 58.0C462.8 58.0 463.0 58.3 463.0 58.7C463.0 60.5 464.6 63.5 465.6 63.5C466.2 63.5 467.2 64.1 467.8 64.8C469.4 66.5 470.0 66.0 470.0 62.5C470.0 60.8 470.2 59.5 470.5 59.5C470.8 59.5 471.0 60.5 471.0 61.7C471.0 64.1 471.8 66.5 472.7 66.6C473.0 66.6 473.7 66.6 474.2 66.7C475.7 66.8 475.5 68.1 474.0 68.5C473.3 68.7 471.9 69.3 470.8 69.8C468.3 71.0 466.1 71.7 460.5 72.8C455.5 73.8 452.6 74.7 449.3 76.3C446.5 77.7 446.5 77.7 445.2 76.8ZM396.3 63.1C396.0 50.4 396.1 49.2 396.8 48.6C397.3 48.3 398.0 48.0 398.5 48.0C398.9 48.0 400.3 47.3 401.5 46.5C405.1 44.1 405.1 44.2 404.7 50.1C404.6 52.9 404.3 59.8 404.3 65.4L404.1 75.6 L402.2 76.3C401.1 76.7 399.4 77.0 398.5 77.0L396.7 77.0 L396.3 63.1ZM478.1 65.4C478.3 62.5 478.9 62.1 479.9 64.2C480.7 65.8 480.0 68.0 478.7 68.0C478.1 68.0 478.0 67.5 478.1 65.4ZM299.0 63.4C288.8 62.4 284.4 61.9 280.5 61.2C276.9 60.7 267.0 59.7 255.0 58.8C253.5 58.7 249.8 58.2 246.8 57.8C238.8 56.6 218.2 55.0 207.6 54.6L198.4 54.4 L199.6 53.2C200.2 52.6 202.7 51.0 205.0 49.7C207.3 48.4 209.8 47.0 210.5 46.5C211.2 46.0 213.0 45.0 214.4 44.3C215.8 43.6 219.8 41.1 223.4 38.8C232.1 33.1 235.2 31.6 240.8 30.5C242.4 30.1 245.6 29.5 247.8 29.0C249.9 28.5 252.5 27.9 253.5 27.7C254.5 27.5 256.6 26.9 258.2 26.4C262.5 25.0 268.7 24.0 272.6 24.0C274.5 24.0 276.9 23.8 278.1 23.5C279.3 23.2 282.3 22.7 284.8 22.3C287.2 21.9 291.3 21.1 293.8 20.5C302.9 18.4 310.9 16.9 318.5 16.0C322.8 15.4 328.4 14.5 331.0 13.9C333.6 13.4 336.4 12.9 337.2 12.8C339.5 12.8 349.6 14.1 350.9 14.6C351.5 14.8 352.8 15.0 353.7 15.0C354.6 15.0 358.7 15.6 362.8 16.3C366.9 17.0 371.8 17.8 373.8 18.1C375.7 18.3 378.5 18.8 380.0 19.1C381.5 19.3 386.1 19.7 390.2 20.0C400.1 20.6 404.5 21.1 404.5 21.5C404.5 21.7 402.0 22.7 398.9 23.7C391.7 26.2 383.7 30.2 380.2 33.0C379.7 33.5 377.6 34.4 375.5 35.0C370.0 36.7 366.1 38.6 361.7 41.5C358.0 44.0 352.2 47.0 351.0 47.0C349.4 47.0 337.6 53.4 333.0 56.8C331.7 57.7 329.5 58.9 328.1 59.5C326.7 60.0 324.1 61.2 322.4 62.1C319.3 63.6 319.2 63.6 311.0 63.7C306.5 63.7 301.1 63.6 299.0 63.4ZM423.8 56.1C424.1 55.9 424.5 55.0 424.7 54.1L425.1 52.4 L426.0 54.0C427.2 55.8 429.1 56.0 430.2 54.4C431.4 52.8 431.3 41.4 430.2 40.3C429.7 39.8 429.0 39.6 428.3 39.8C426.6 40.3 426.1 40.9 425.7 43.2L425.3 45.2 L424.9 43.7C423.4 37.9 420.0 42.6 420.0 50.6C420.0 55.1 421.7 57.5 423.8 56.1Z"/></svg>
